<svg xmlns="http://www.w3.org/2000/svg" viewBox="0 0 108 108" fill="none">
  <path d="M22,30 L22,78 Q22,86 30,86 L78,86 Q86,86 86,78 L86,30 Q86,22 78,22 L30,22 Q22,22 22,30 Z" fill="none" stroke="#4776E6" stroke-width="2"></path>
  <path d="M38,18 L38,22 L42,22 L42,18 Z" fill="#4776E6"></path>
  <path d="M50,18 L50,22 L54,22 L54,18 Z" fill="#4776E6"></path>
  <path d="M62,18 L62,22 L66,22 L66,18 Z" fill="#4776E6"></path>
  <path d="M38,86 L38,90 L42,90 L42,86 Z" fill="#4776E6"></path>
  <path d="M50,86 L50,90 L54,90 L54,86 Z" fill="#4776E6"></path>
  <path d="M62,86 L62,90 L66,90 L66,86 Z" fill="#4776E6"></path>
  <path d="M18,38 L22,38 L22,42 L18,42 Z" fill="#4776E6"></path>
  <path d="M18,50 L22,50 L22,54 L18,54 Z" fill="#4776E6"></path>
  <path d="M18,62 L22,62 L22,66 L18,66 Z" fill="#4776E6"></path>
  <path d="M86,38 L90,38 L90,42 L86,42 Z" fill="#4776E6"></path>
  <path d="M86,50 L90,50 L90,54 L86,54 Z" fill="#4776E6"></path>
  <path d="M86,62 L90,62 L90,66 L86,66 Z" fill="#4776E6"></path>
  <path d="M30,34 L34,34 L34,66 L30,66 Z" fill="#FFFFFF"></path>
  <path d="M30,62 L44,62 L44,66 L30,66 Z" fill="#FFFFFF"></path>
  <path d="M46,34 L66,34 L66,38 L46,38 Z" fill="#FFFFFF"></path>
  <path d="M54,34 L58,34 L58,66 L54,66 Z" fill="#FFFFFF"></path>
  <path d="M66,34 L76,34 L76,38 L66,38 Z" fill="#FFFFFF"></path>
  <path d="M69,34 L73,34 L73,66 L69,66 Z" fill="#FFFFFF"></path>
  <path d="M66,62 L76,62 L76,66 L66,66 Z" fill="#FFFFFF"></path>
  <path d="M54,48 A5,5 0 1,1 53.999,48 Z" fill="#F2994A"></path>
  <path d="M75,35 A4,4 0 1,1 74.999,35 Z" fill="#F2994A"></path>
  <path d="M59,50 L76,50" fill="none" stroke="#F2994A" stroke-width="1.5"></path>
  <path d="M30,48 L36,48" fill="none" stroke="#4776E6" stroke-width="1.5"></path>
  <path d="M54,68 L54,76" fill="none" stroke="#4776E6" stroke-width="1.5"></path>
</svg>